<svg width="378" height="148" viewBox="0 0 378 148" fill="none" xmlns="http://www.w3.org/2000/svg">
<g clip-path="url(#clip0_276_1113)">
<path d="M40.325 34.23C40.325 33.5507 39.7807 32.997 39.1104 33.0284C36.0682 33.1706 33.0702 33.8464 30.2509 35.0286C27.057 36.3679 24.1549 38.3309 21.7104 40.8056C19.2659 43.2803 17.3268 46.2182 16.0039 49.4515C14.6809 52.6848 14 56.1503 14 59.65C14 63.1497 14.6809 66.6152 16.0039 69.8485C17.3268 73.0818 19.2659 76.0197 21.7104 78.4944C24.1549 80.9691 27.057 82.9321 30.2509 84.2714C33.0702 85.4536 36.0682 86.1294 39.1104 86.2716C39.7807 86.3029 40.325 85.7493 40.325 85.07L40.325 34.23Z" fill="black"/>
<path d="M93.785 59.65C94.456 59.65 95.0029 59.099 94.9719 58.4204C94.8314 55.3406 94.1639 52.3056 92.9961 49.4515C91.6732 46.2182 89.7341 43.2803 87.2896 40.8056C84.8451 38.3309 81.943 36.3679 78.7491 35.0286C75.5552 33.6893 72.132 33 68.675 33C65.2179 33 61.7947 33.6893 58.6008 35.0286C55.4069 36.3679 52.5049 38.3309 50.0604 40.8056C47.6159 43.2803 45.6768 46.2182 44.3539 49.4515C43.1861 52.3056 42.5185 55.3406 42.378 58.4204C42.3471 59.099 42.894 59.65 43.565 59.65L93.785 59.65Z" fill="black"/>
<path d="M68.675 113.77C68.675 114.449 69.2193 115.003 69.8896 114.972C72.9318 114.829 75.9298 114.154 78.7491 112.971C81.943 111.632 84.8451 109.669 87.2896 107.194C89.7341 104.72 91.6731 101.782 92.9961 98.5485C94.3191 95.3152 95 91.8497 95 88.35C95 84.8503 94.3191 81.3848 92.9961 78.1515C91.6732 74.9181 89.7341 71.9803 87.2896 69.5056C84.8451 67.0309 81.943 65.0679 78.7491 63.7286C75.9298 62.5464 72.9318 61.8706 69.8896 61.7284C69.2193 61.697 68.675 62.2507 68.675 62.93L68.675 113.77Z" fill="black"/>
<path d="M15.215 88.35C14.544 88.35 13.9971 88.901 14.028 89.5795C14.1685 92.6593 14.8361 95.6943 16.0039 98.5485C17.3268 101.782 19.2659 104.72 21.7104 107.194C24.1549 109.669 27.057 111.632 30.2509 112.971C33.4447 114.311 36.8679 115 40.325 115C43.782 115 47.2052 114.311 50.3991 112.971C53.593 111.632 56.4951 109.669 58.9396 107.194C61.3841 104.72 63.3232 101.782 64.6461 98.5485C65.8139 95.6944 66.4814 92.6594 66.622 89.5796C66.6529 88.901 66.106 88.35 65.435 88.35L15.215 88.35Z" fill="black"/>
</g>
<path d="M145.976 51.52V57.472H127.096V70.592H141.816V76.544H127.096V96H119.8V51.52H145.976ZM184.482 60.736L162.85 112.576H155.298L162.466 95.424L148.578 60.736H156.706L166.626 87.616L176.93 60.736H184.482ZM207.78 60.16C210.553 60.16 213.028 60.736 215.204 61.888C217.422 63.04 219.15 64.7467 220.388 67.008C221.625 69.2693 222.244 72 222.244 75.2V96H215.012V76.288C215.012 73.1307 214.222 70.72 212.644 69.056C211.065 67.3493 208.91 66.496 206.18 66.496C203.449 66.496 201.273 67.3493 199.652 69.056C198.073 70.72 197.284 73.1307 197.284 76.288V96H189.988V60.736H197.284V64.768C198.478 63.3173 199.993 62.1867 201.828 61.376C203.705 60.5653 205.689 60.16 207.78 60.16ZM240.062 66.688V86.208C240.062 87.5307 240.361 88.4907 240.958 89.088C241.598 89.6427 242.665 89.92 244.158 89.92H248.638V96H242.878C239.593 96 237.075 95.232 235.326 93.696C233.577 92.16 232.702 89.664 232.702 86.208V66.688H228.542V60.736H232.702V51.968H240.062V60.736H248.638V66.688H240.062ZM262.659 65.856C263.725 64.064 265.133 62.6773 266.883 61.696C268.675 60.672 270.787 60.16 273.219 60.16V67.712H271.363C268.504 67.712 266.328 68.4373 264.835 69.888C263.384 71.3387 262.659 73.856 262.659 77.44V96H255.363V60.736H262.659V65.856ZM283.637 56.064C282.314 56.064 281.205 55.616 280.309 54.72C279.413 53.824 278.965 52.7147 278.965 51.392C278.965 50.0693 279.413 48.96 280.309 48.064C281.205 47.168 282.314 46.72 283.637 46.72C284.917 46.72 286.005 47.168 286.901 48.064C287.797 48.96 288.245 50.0693 288.245 51.392C288.245 52.7147 287.797 53.824 286.901 54.72C286.005 55.616 284.917 56.064 283.637 56.064ZM287.221 60.736V96H279.925V60.736H287.221ZM311.904 78.144L323.296 96H315.04L307.424 84.032L300.256 96H292.64L304.032 78.656L292.64 60.736H300.896L308.512 72.704L315.68 60.736H323.296L311.904 78.144Z" fill="black"/>
<defs>
<clipPath id="clip0_276_1113">
<rect width="81" height="82" fill="white" transform="translate(14 33)"/>
</clipPath>
</defs>
</svg>
